<svg>
    <symbol 
        id="update-icon"
        viewBox="0 0 16 16"
        class="bi bi-box-arrow-up"
        fill="#177ae4"
        xmlns="http://www.w3.org/2000/svg"
    >
        <path
            fill-rule="evenodd"
            d="M3.5 6a.5.5 0 0 0-.5.5v8a.5.5 0 0 0 .5.5h9a.5.5 0 0 0 .5-.5v-8a.5.5 0 0 0-.5-.5h-2a.5.5 0 0 1 0-1h2A1.5 1.5 0 0 1 14 6.5v8a1.5 1.5 0 0 1-1.5 1.5h-9A1.5 1.5 0 0 1 2 14.5v-8A1.5 1.5 0 0 1 3.5 5h2a.5.5 0 0 1 0 1h-2z"
        />
        <path
            fill-rule="evenodd"
            d="M7.646.146a.5.5 0 0 1 .708 0l3 3a.5.5 0 0 1-.708.708L8.5 1.707V10.5a.5.5 0 0 1-1 0V1.707L5.354 3.854a.5.5 0 1 1-.708-.708l3-3z"
        />
    </symbol>


    <symbol 
        id="wc-icon"
        viewBox="0 0 24 24"
        fill="#8e8e90"
        xmlns="http://www.w3.org/2000/svg"
    >
        <path
            d="M.057 24l1.687-6.163c-1.041-1.804-1.588-3.849-1.587-5.946.003-6.556 5.338-11.891 11.893-11.891 3.181.001 6.167 1.24 8.413 3.488 2.245 2.248 3.481 5.236 3.48 8.414-.003 6.557-5.338 11.892-11.893 11.892-1.99-.001-3.951-.5-5.688-1.448l-6.305 1.654zm6.597-3.807c1.676.995 3.276 1.591 5.392 1.592 5.448 0 9.886-4.434 9.889-9.885.002-5.462-4.415-9.89-9.881-9.892-5.452 0-9.887 4.434-9.889 9.884-.001 2.225.651 3.891 1.746 5.634l-.999 3.648 3.742-.981zm11.387-5.464c-.074-.124-.272-.198-.57-.347-.297-.149-1.758-.868-2.031-.967-.272-.099-.47-.149-.669.149-.198.297-.768.967-.941 1.165-.173.198-.347.223-.644.074-.297-.149-1.255-.462-2.39-1.475-.883-.788-1.48-1.761-1.653-2.059-.173-.297-.018-.458.13-.606.134-.133.297-.347.446-.521.151-.172.2-.296.3-.495.099-.198.05-.372-.025-.521-.075-.148-.669-1.611-.916-2.206-.242-.579-.487-.501-.669-.51l-.57-.01c-.198 0-.52.074-.792.372s-1.04 1.016-1.04 2.479 1.065 2.876 1.213 3.074c.149.198 2.095 3.2 5.076 4.487.709.306 1.263.489 1.694.626.712.226 1.36.194 1.872.118.571-.085 1.758-.719 2.006-1.413.248-.695.248-1.29.173-1.414z"
        />
    </symbol>

    <symbol
        id="reviews"
        xmlns="http://www.w3.org/2000/svg"
        viewBox="-7 0 511 511.998"
        fill="#177ae4"
    >
        <path
            d="m269.183594 162.503906h-179.285156c-5.519532 0-10 4.476563-10 10 0 5.523438 4.480468 10 10 10h179.285156c5.519531 0 10-4.476562 10-10 0-5.523437-4.480469-10-10-10zm0 0"
        />
        <path
            d="m89.898438 257.992188h.027343c5.523438 0 9.988281-4.480469 9.988281-10 0-5.523438-4.492187-10-10.015624-10-5.519532 0-10 4.476562-10 10 0 5.519531 4.480468 10 10 10zm0 0"
        />
        <path
            d="m269.183594 237.992188h-139.257813c-5.523437 0-10 4.476562-10 10 0 5.519531 4.476563 10 10 10h139.257813c5.519531 0 10-4.480469 10-10 0-5.523438-4.480469-10-10-10zm0 0"
        />
        <path
            d="m269.183594 313.476562h-179.285156c-5.519532 0-10 4.480469-10 10 0 5.523438 4.480468 10 10 10h179.285156c5.519531 0 10-4.476562 10-10 0-5.519531-4.480469-10-10-10zm0 0"
        />
        <path
            d="m266.492188 387.234375h-114.953126c-5.519531 0-10 4.476563-10 10 0 5.519531 4.480469 10 10 10h114.953126c5.523437 0 10-4.480469 10-10 0-5.523437-4.476563-10-10-10zm0 0"
        />
        <path
            d="m310.691406 34.6875c-.4375-19.199219-16.179687-34.6875-35.480468-34.6875-19.296876 0-35.035157 15.476562-35.480469 34.664062h-24.710938c-.445312-19.1875-16.183593-34.664062-35.480469-34.664062-19.292968 0-35.03125 15.476562-35.476562 34.664062h-24.710938c-.445312-19.1875-16.183593-34.664062-35.480468-34.664062-19.300782 0-35.042969 15.488281-35.476563 34.6875-26.492187.5-47.894531 22.195312-47.894531 48.804688v295.953124c0 12.886719 3.242188 25.355469 9.296875 36.421876.078125.144531.152344.289062.230469.429687.34375.617187.695312 1.226563 1.054687 1.832031.1875.316406.378907.632813.574219.949219.328125.535156.65625 1.070313.996094 1.597656.324218.503907.660156.996094.996094 1.492188.398437.582031.804687 1.164062 1.21875 1.734375.421874.585937.847656 1.167968 1.289062 1.746094.25.324218.503906.648437.761719.96875.453125.574218.914062 1.140624 1.386719 1.699218.226562.273438.453124.546875.6875.816406.707031.816407 1.425781 1.625 2.171874 2.417969l44.039063 46.792969c.832031.882812 1.683594 1.734375 2.546875 2.570312.1875.175782.371094.351563.558594.527344.78125.738282 1.574218 1.460938 2.382812 2.164063.078125.070312.15625.140625.234375.207031 8.726563 7.542969 18.988281 12.949219 30.199219 15.902344.222656.058594.449219.113281.675781.167968.859375.21875 1.726563.421876 2.597657.613282.414062.089844.824218.179687 1.242187.265625.167969.035156.335937.074219.503906.105469.136719.027343.273438.039062.410157.0625 4.597656.867187 9.285156 1.335937 14.011718 1.335937h189.191406c26.921876 0 48.824219-21.902344 48.824219-48.824219v-369.949218c0-26.609376-21.398437-48.300782-47.890625-48.804688zm-50.980468.8125c0-8.546875 6.953124-15.5 15.5-15.5 8.546874 0 15.5 6.953125 15.5 15.5v37.019531c0 8.546875-6.953126 15.5-15.5 15.5-8.550782 0-15.5-6.953125-15.5-15.5zm-95.671876 0c0-8.546875 6.957032-15.5 15.5-15.5 8.546876 0 15.5 6.953125 15.5 15.5v37.019531c0 8.546875-6.953124 15.5-15.5 15.5-8.542968 0-15.5-6.953125-15.5-15.5zm-95.667968 0c0-8.546875 6.957031-15.5 15.5-15.5 8.546875 0 15.5 6.953125 15.5 15.5v37.019531c0 8.546875-6.953125 15.5-15.5 15.5-8.542969 0-15.5-6.953125-15.5-15.5zm-32.644532 382.34375c-.585937-.625-1.160156-1.265625-1.714843-1.914062-.246094-.28125-.476563-.574219-.710938-.859376-.300781-.367187-.605469-.726562-.898437-1.097656-.304688-.390625-.59375-.789062-.886719-1.183594-.203125-.273437-.410156-.542968-.609375-.820312-.332031-.46875-.652344-.945312-.972656-1.421875-.136719-.207031-.28125-.414063-.414063-.621094-.351562-.539062-.691406-1.085937-1.019531-1.640625-.089844-.144531-.175781-.289062-.261719-.433594-.359375-.613281-.710937-1.230468-1.046875-1.859374-.042968-.078126-.085937-.160157-.128906-.242188-.363281-.683594-.714844-1.375-1.050781-2.074219-.007813-.015625-.015625-.03125-.023438-.046875-.347656-.730468-.683593-1.472656-1-2.222656h64.1875c4.890625 0 8.871094 3.980469 8.871094 8.875v67.234375c-6.835937-3.003906-13.082031-7.355469-18.273437-12.875zm302.855469 35.597656c0 15.898438-12.929687 28.828125-28.824219 28.828125h-189.1875c-.84375 0-1.683593-.027343-2.523437-.066406v-71.925781c0-15.917969-12.953125-28.871094-28.875-28.871094h-68.625c-.023437-.652344-.046875-1.304688-.046875-1.960938v-295.953124c0-15.578126 12.417969-28.308594 27.871094-28.8125v17.839843c0 17.125 12.195312 31.460938 28.355468 34.777344 2.308594.472656 4.699219.722656 7.148438.722656 19.574219 0 35.5-15.925781 35.5-35.5v-17.855469h24.664062v17.855469c0 19.574219 15.925782 35.5 35.5 35.5 2.449219 0 4.839844-.25 7.148438-.722656 16.160156-3.316406 28.355469-17.648437 28.355469-34.777344v-17.855469h24.667969v17.855469c0 19.574219 15.921874 35.5 35.5 35.5 17.125 0 31.460937-12.191406 34.777343-28.355469.472657-2.308593.722657-4.699218.722657-7.144531v-17.835937c15.453124.5 27.871093 13.230468 27.871093 28.808594zm0 0"
        />
        <path
            d="m487.027344 327.171875c-5.523438 0-10 4.476563-10 10v84.230469c0 8.953125-7.226563 16.242187-16.148438 16.359375v-309.761719c0-4.953125-.785156-9.910156-2.269531-14.644531-.011719-.046875-.019531-.09375-.035156-.140625-.085938-.269532-.179688-.535156-.269531-.804688-.175782-.519531-.355469-1.035156-.546876-1.546875-.191406-.515625-.386718-1.023437-.589843-1.523437-.109375-.265625-.222657-.535156-.339844-.800782-.3125-.730468-.636719-1.453124-.980469-2.152343l-17.664062-35.890625c-3.078125-6.25-9.316406-10.132813-16.277344-10.132813-6.964844 0-13.203125 3.882813-16.277344 10.132813l-17.664062 35.890625c-.347656.703125-.667969 1.425781-.984375 2.15625-.117188.265625-.226563.53125-.335938.796875-.203125.496094-.398437 1-.585937 1.507812-.199219.527344-.382813 1.054688-.5625 1.589844-.085938.257812-.179688.515625-.261719.777344-.011719.042968-.019531.089844-.035156.136718-1.480469 4.734376-2.265625 9.691407-2.265625 14.644532v313.777344c0 6.355468 3.734375 11.84375 9.117187 14.421874v25.949219c0 16.460938 13.394531 29.851563 29.855469 29.851563s29.851562-13.390625 29.851562-29.851563v-24.371093h8.898438c20.054688 0 36.371094-16.316407 36.371094-36.375v-84.230469c0-5.519531-4.476563-9.996094-10-9.996094zm-84.09375 110.601563v-309.773438c0-.589844.023437-1.175781.058594-1.761719h37.828124c.035157.585938.058594 1.171875.058594 1.761719v309.773438zm30.546875-331.535157h-23.152344l11.578125-23.523437zm-1.722657 375.910157c0 5.429687-4.417968 9.851562-9.851562 9.851562s-9.851562-4.421875-9.851562-9.851562v-24.375h19.703124zm0 0"
        />
    </symbol>

    <symbol
        id="question"
        viewBox="0 0 512 512"
        xmlns="http://www.w3.org/2000/svg"
        fill="#177ae4"
    >
        <path
            d="m277.332031 384c0 11.78125-9.550781 21.332031-21.332031 21.332031s-21.332031-9.550781-21.332031-21.332031 9.550781-21.332031 21.332031-21.332031 21.332031 9.550781 21.332031 21.332031zm0 0"
        />
        <path
            d="m256 512c-141.164062 0-256-114.835938-256-256s114.835938-256 256-256 256 114.835938 256 256-114.835938 256-256 256zm0-480c-123.519531 0-224 100.480469-224 224s100.480469 224 224 224 224-100.480469 224-224-100.480469-224-224-224zm0 0"
        />
        <path
            d="m256 314.667969c-8.832031 0-16-7.167969-16-16v-21.546875c0-20.308594 12.886719-38.507813 32.042969-45.269532 25.492187-8.980468 42.625-36.140624 42.625-55.851562 0-32.363281-26.304688-58.667969-58.667969-58.667969s-58.667969 26.304688-58.667969 58.667969c0 8.832031-7.167969 16-16 16s-16-7.167969-16-16c0-49.984375 40.664063-90.667969 90.667969-90.667969s90.667969 40.683594 90.667969 90.667969c0 35.585938-28.097657 73.367188-63.980469 86.039062-6.398438 2.238282-10.6875 8.316407-10.6875 15.101563v21.527344c0 8.832031-7.167969 16-16 16zm0 0"
        />
    </symbol>

    <symbol
        id="safari"
        xmlns="http://www.w3.org/2000/svg"
        fill="#177ae4"
        viewBox="0 0 384 384"
    >
        <path
            d="m192 0c-105.871094 0-192 86.128906-192 192s86.128906 192 192 192 192-86.128906 192-192-86.128906-192-192-192zm0 352c-88.222656 0-160-71.777344-160-160s71.777344-160 160-160 160 71.777344 160 160-71.777344 160-160 160zm0 0"
        />
        <path
            d="m102.703125 281.296875 133.945313-44.648437 44.648437-133.945313-133.945313 44.648437zm69.945313-108.648437 58.054687-19.351563-19.351563 58.054687-58.054687 19.351563zm0 0"
        />
    </symbol>

    <symbol
        id="hand"
        viewBox="0 0 26 26"
        style="enable-background: new 0 0 26 26"
        xml:space="preserve"
        fill="#177ae4"
        xmlns="http://www.w3.org/2000/svg"
        x="0px"
        y="0px"
    >
        <g>
            <circle style="fill: #030104" cx="21.732" cy="5.5" r="1.5" />
            <circle style="fill: #030104" cx="17.732" cy="2.5" r="1.5" />
            <circle style="fill: #030104" cx="13.732" cy="1.5" r="1.5" />
            <circle style="fill: #030104" cx="9.732" cy="3.5" r="1.5" />
            <path
              d="M20.232,5.5V12c0,0.276-0.224,0.5-0.5,0.5s-0.5-0.224-0.5-0.5V2.5h-3V11c0,0.276-0.224,0.5-0.5,0.5
                c-0.276,0-0.5-0.224-0.5-0.5V1.5h-3V11c0,0.276-0.224,0.5-0.5,0.5s-0.5-0.224-0.5-0.5V3.5h-3V16l-2.025-2.771
                c-0.6-0.925-1.771-1.235-2.629-0.705c-0.855,0.542-1.067,1.724-0.475,2.646c0,0,3.266,4.943,4.658,7.059S11.408,26,15.625,26
                c6.982,0,7.607-5.392,7.607-7s0-13.5,0-13.5H20.232z"
            />
        </g>
    </symbol>

    <symbol
        id="docx"
        viewBox="0 0 470.586 470.586"
        style="enable-background: new 0 0 470.586 470.586"
        xml:space="preserve"
        fill="#177ae4"
        xmlns="http://www.w3.org/2000/svg"
        x="0px"
        y="0px"
    > 
        <path
            d="M327.081,0H90.234C74.331,0,61.381,12.959,61.381,28.859v412.863c0,15.924,12.95,28.863,28.853,28.863H380.35
            c15.917,0,28.855-12.939,28.855-28.863V89.234L327.081,0z M333.891,43.184l35.996,39.121h-35.996V43.184z M384.972,441.723
            c0,2.542-2.081,4.629-4.635,4.629H90.234c-2.55,0-4.619-2.087-4.619-4.629V28.859c0-2.548,2.069-4.613,4.619-4.613h219.411v70.181
            c0,6.682,5.443,12.099,12.129,12.099h63.198V441.723z M128.364,128.89H334.15c5.013,0,9.079,4.066,9.079,9.079
            c0,5.013-4.066,9.079-9.079,9.079H128.364c-5.012,0-9.079-4.066-9.079-9.079C119.285,132.957,123.352,128.89,128.364,128.89z
            M343.229,198.98c0,5.012-4.066,9.079-9.079,9.079H128.364c-5.012,0-9.079-4.066-9.079-9.079s4.067-9.079,9.079-9.079H334.15
            C339.163,189.901,343.229,193.968,343.229,198.98z M343.229,257.993c0,5.013-4.066,9.079-9.079,9.079H128.364
            c-5.012,0-9.079-4.066-9.079-9.079s4.067-9.079,9.079-9.079H334.15C339.163,248.914,343.229,252.98,343.229,257.993z
            M343.229,318.011c0,5.013-4.066,9.079-9.079,9.079H128.364c-5.012,0-9.079-4.066-9.079-9.079s4.067-9.079,9.079-9.079H334.15
            C339.163,308.932,343.229,312.998,343.229,318.011z"
        />
    </symbol>

    <sybmol
        id="today-icon"
        viewBox="0 0 36.447 36.447"
        fill="#7d8083"
        xmlns="http://www.w3.org/2000/svg"
        x="0px"
        y="0px"
    >
        <g>
            <path
                d="M30.224,3.948h-1.098V2.75c0-1.517-1.197-2.75-2.67-2.75c-1.474,0-2.67,1.233-2.67,2.75v1.197h-2.74V2.75
                c0-1.517-1.197-2.75-2.67-2.75c-1.473,0-2.67,1.233-2.67,2.75v1.197h-2.74V2.75c0-1.517-1.197-2.75-2.67-2.75
                c-1.473,0-2.67,1.233-2.67,2.75v1.197H6.224c-2.343,0-4.25,1.907-4.25,4.25v24c0,2.343,1.907,4.25,4.25,4.25h24
                c2.344,0,4.25-1.907,4.25-4.25v-24C34.474,5.855,32.567,3.948,30.224,3.948z M25.286,2.75c0-0.689,0.525-1.25,1.17-1.25
                c0.646,0,1.17,0.561,1.17,1.25v4.896c0,0.689-0.524,1.25-1.17,1.25c-0.645,0-1.17-0.561-1.17-1.25V2.75z M17.206,2.75
                c0-0.689,0.525-1.25,1.17-1.25s1.17,0.561,1.17,1.25v4.896c0,0.689-0.525,1.25-1.17,1.25s-1.17-0.561-1.17-1.25V2.75z M9.125,2.75
                c0-0.689,0.525-1.25,1.17-1.25s1.17,0.561,1.17,1.25v4.896c0,0.689-0.525,1.25-1.17,1.25s-1.17-0.561-1.17-1.25V2.75z
                M31.974,32.198c0,0.965-0.785,1.75-1.75,1.75h-24c-0.965,0-1.75-0.785-1.75-1.75v-22h27.5V32.198z"
            />
            <rect x="6.724" y="14.626" width="4.595" height="4.089" />
            <rect x="12.857" y="14.626" width="4.596" height="4.089" />
            <rect x="18.995" y="14.626" width="4.595" height="4.089" />
            <rect x="25.128" y="14.626" width="4.596" height="4.089" />
            <rect x="6.724" y="20.084" width="4.595" height="4.086" />
            <rect x="12.857" y="20.084" width="4.596" height="4.086" />
            <rect x="18.995" y="20.084" width="4.595" height="4.086" />
            <rect x="25.128" y="20.084" width="4.596" height="4.086" />
            <rect x="6.724" y="25.54" width="4.595" height="4.086" />
            <rect x="12.857" y="25.54" width="4.596" height="4.086" />
            <rect x="18.995" y="25.54" width="4.595" height="4.086" />
            <rect x="25.128" y="25.54" width="4.596" height="4.086" />
        <g/>
    </sybmol>
    <symbol
        id="search-icon"
        fill="#7d8083"
        xmlns="http://www.w3.org/2000/svg"
        x="0px"
        y="0px"
        viewBox="0 0 512.005 512.005"
        style="enable-background: new 0 0 512.005 512.005"
        xml:space="preserve"

    >
        <g>
            <g>
                <path
                    d="M505.749,475.587l-145.6-145.6c28.203-34.837,45.184-79.104,45.184-127.317c0-111.744-90.923-202.667-202.667-202.667
                    S0,90.925,0,202.669s90.923,202.667,202.667,202.667c48.213,0,92.48-16.981,127.317-45.184l145.6,145.6
                    c4.16,4.16,9.621,6.251,15.083,6.251s10.923-2.091,15.083-6.251C514.091,497.411,514.091,483.928,505.749,475.587z
                    M202.667,362.669c-88.235,0-160-71.765-160-160s71.765-160,160-160s160,71.765,160,160S290.901,362.669,202.667,362.669z"
                />
            </g>
        </g>
    </symbol>
</svg>